<?xml version="1.0" encoding="UTF-8" standalone="no"?>
<svg
   xmlns:dc="http://purl.org/dc/elements/1.1/"
   xmlns:cc="http://creativecommons.org/ns#"
   xmlns:rdf="http://www.w3.org/1999/02/22-rdf-syntax-ns#"
   xmlns:svg="http://www.w3.org/2000/svg"
   xmlns="http://www.w3.org/2000/svg"
   version="1.1"
   id="svg3381"
   viewBox="0 0 33.000001 33.000001"
   height="33"
   width="33">
  <defs
     id="defs3383" />
  <metadata
     id="metadata3386">
    <rdf:RDF>
      <cc:Work
         rdf:about="">
        <dc:format>image/svg+xml</dc:format>
        <dc:type
           rdf:resource="http://purl.org/dc/dcmitype/StillImage" />
        <dc:title></dc:title>
      </cc:Work>
    </rdf:RDF>
  </metadata>
  <g
     transform="translate(0,-1019.3622)"
     id="layer1">
    <circle
       r="16.5"
       cy="1035.8622"
       cx="16.5"
       id="path9"
       style="fill:#ffffff;fill-opacity:1;stroke:none;stroke-width:7.19909143;stroke-linejoin:round;stroke-miterlimit:4;stroke-dasharray:none;stroke-opacity:1" />
    <circle
       r="15.797872"
       cy="1035.8622"
       cx="16.5"
       id="path8438"
       style="fill:#e5063e;fill-opacity:1;stroke:none;stroke-width:3.13333893;stroke-linejoin:round;stroke-miterlimit:4;stroke-dasharray:none;stroke-opacity:1" />
    <path
       id="path3370"
       style="fill:#ffffff;fill-opacity:1;fill-rule:evenodd;stroke:none;stroke-width:0.04914893"
       d="m 13.02451,1035.3124 -3.17499,-5.4991 0.83995,-1.455 h 3.16478 l 1.59274,2.7582 z m 11.33341,-6.9541 -0.19498,-0.3377 -0.82164,-1.4232 -2.07042,-8e-4 H 20.1404 18.05662 l -1.01715,1.7616 -0.55073,0.9535 -0.55045,-0.9535 -1.01715,-1.7616 h -2.08403 -1.13049 l -2.07069,8e-4 -0.82137,1.4232 -0.19501,0.3377 -0.85643,1.4833 -1.53829,2.6643 -2.01206,3.4852 1.37025,2.3737 1.53829,2.6641 0.18979,0.3285 1.11164,1.9254 1.04174,1.8048 1.12551,-1.9492 0.55126,-0.9552 1.88299,-3.2616 2.42275,4.1958 0.0259,0.045 1.01583,1.7597 1.01611,-1.7597 0.0259,-0.045 2.42246,-4.1958 2.54733,4.4123 1.03496,1.7927 1.04202,-1.8048 1.11139,-1.9251 0.18976,-0.3288 1.53829,-2.6641 1.37025,-2.3737 -2.03457,-3.5242 -1.53828,-2.6641 z m -5.23468,0 h 3.16479 l 0.83995,1.455 -3.17475,5.4991 -2.42246,-4.1959 z m 1.87176,8.7588 3.17499,-5.4991 0.8546,1.4802 1.69272,2.9319 -1.02838,1.7811 -2.1466,3.7179 z m -12.18751,-5.4993 3.17501,5.4993 -2.52483,4.3733 -2.14657,-3.7181 -1.02841,-1.7812 1.02841,-1.7812 z m 7.68125,9.6949 -2.42247,-4.1956 2.42247,-4.1958 1.07841,1.8678 1.34407,2.328 z" />
  </g>
</svg>
