<?xml version="1.0" encoding="UTF-8" standalone="no"?>
<svg
   xmlns:dc="http://purl.org/dc/elements/1.1/"
   xmlns:cc="http://creativecommons.org/ns#"
   xmlns:rdf="http://www.w3.org/1999/02/22-rdf-syntax-ns#"
   xmlns:svg="http://www.w3.org/2000/svg"
   xmlns="http://www.w3.org/2000/svg"
   version="1.1"
   id="coin"
   viewBox="0 0 51 51"
   height="1"
   width="1">
  <defs />
  <metadata
     id="coin">
    <rdf:RDF>
      <cc:Work
         rdf:about="">
        <dc:format>image/svg+xml</dc:format>
        <dc:type
           rdf:resource="http://purl.org/dc/dcmitype/StillImage" />
        <dc:title></dc:title>
      </cc:Work>
    </rdf:RDF>
  </metadata>
  <g
     transform="translate(0,-1051.3622)"
     id="layer1">
    <path
       style="clip-rule:evenodd;fill:#2c3e50;fill-rule:nonzero;stroke-width:0.99999982;stroke-linejoin:round;stroke-miterlimit:1.41420996;opacity:1;fill-opacity:1;paint-order:markers stroke fill"
       d="m 25.499996,1102.3622 c 14.099997,0 25.499999,-11.4 25.499999,-25.5 0,-14.1 -11.500001,-25.5 -25.499999,-25.5 -13.999998,0 -25.499996,11.4 -25.499996,25.5 0,14.1 11.399998,25.5 25.499996,25.5 z"
       id="coin" />
    <path
       id="path3370"
       style="fill:#e5063e;fill-opacity:1;fill-rule:evenodd;stroke:none;stroke-width:0.08159533"
       d="m 19.729374,1075.8655 -5.270944,-9.1299 1.394462,-2.415 h 5.254046 l 2.644144,4.5789 z m 18.815313,-11.5449 -0.323915,-0.5575 -1.364111,-2.363 -3.437177,-8e-4 H 31.542706 28.08323 l -1.688634,2.925 -0.914273,1.5831 -0.913831,-1.5831 -1.688634,-2.925 h -3.459832 -1.876778 l -3.437708,8e-4 -1.363666,2.363 -0.323915,0.5575 -1.421809,2.4617 -2.553791,4.4242 -3.340359,5.7862 2.274841,3.9406 2.553791,4.4227 0.31505,0.5486 1.845451,3.1965 1.729519,2.9969 1.868459,-3.2373 0.915247,-1.5853 3.126019,-5.4141 4.022149,6.9653 0.04425,0.093 1.686505,2.9213 1.686865,-2.9213 0.04425,-0.093 4.021704,-6.9653 4.228972,7.3243 1.718188,2.9766 1.729961,-2.9962 1.845098,-3.1962 0.31505,-0.5485 2.553787,-4.4231 2.274845,-3.9409 -3.377706,-5.8508 -2.553787,-4.4227 z m -8.690422,0 h 5.254131 l 1.394463,2.415 -5.270682,9.1299 -4.021615,-6.966 z m 3.107432,14.5411 5.271033,-9.1295 1.418802,2.4576 2.810167,4.8675 -1.707302,2.9565 -3.563732,6.1726 z m -20.233228,-9.1295 5.271033,9.1295 -4.191621,7.2606 -3.563643,-6.1727 -1.707394,-2.9569 1.707394,-2.9576 z m 12.752133,16.0948 -4.021708,-6.9653 4.021708,-6.9656 1.790315,3.1008 2.231389,3.8648 z" />
  </g>
</svg>
